HIERARCHY
ROOT Hips
{
	OFFSET 0.000000 91.384300 0.000000
	CHANNELS 6 Xposition Yposition Zposition Xrotation Yrotation Zrotation
	JOINT LeftUpLeg
	{
		OFFSET 9.077000 -4.133000 1.997000
		CHANNELS 3 Xrotation Yrotation Zrotation
		JOINT LeftLeg
		{
			OFFSET -0.837700 -38.099998 -0.644600
			CHANNELS 3 Xrotation Yrotation Zrotation
			JOINT LeftFoot
			{
				OFFSET -2.286000 -39.700100 -5.944000
				CHANNELS 3 Xrotation Yrotation Zrotation
				JOINT LeftToeBase
				{
					OFFSET 0.765600 -9.713000 12.380000
					CHANNELS 3 Xrotation Yrotation Zrotation
					End Site
					{
						OFFSET 0 0 0
					}
				}
			}
		}
	}
	JOINT RightUpLeg
	{
		OFFSET -9.077000 -4.133000 1.997000
		CHANNELS 3 Xrotation Yrotation Zrotation
		JOINT RightLeg
		{
			OFFSET 0.838700 -38.100201 -0.635000
			CHANNELS 3 Xrotation Yrotation Zrotation
			JOINT RightFoot
			{
				OFFSET 2.286000 -39.700001 -5.944000
				CHANNELS 3 Xrotation Yrotation Zrotation
				JOINT RightToeBase
				{
					OFFSET -0.765600 -9.713000 12.380000
					CHANNELS 3 Xrotation Yrotation Zrotation
					End Site
					{
						OFFSET 0 0 0
					}
				}
			}
		}
	}
	JOINT Spine
	{
		OFFSET 0.000000 4.991000 -1.131000
		CHANNELS 3 Xrotation Yrotation Zrotation
		JOINT Spine1
		{
			OFFSET 0.000000 5.519000 1.053000
			CHANNELS 3 Xrotation Yrotation Zrotation
			JOINT Spine2
			{
				OFFSET 0.000000 5.886000 0.113000
				CHANNELS 3 Xrotation Yrotation Zrotation
				JOINT Spine3
				{
					OFFSET 0.000000 6.393000 -0.435800
					CHANNELS 3 Xrotation Yrotation Zrotation
					JOINT Spine4
					{
						OFFSET 0.000000 7.474000 -1.480000
						CHANNELS 3 Xrotation Yrotation Zrotation
						JOINT Spine5
						{
							OFFSET 0.000000 9.333000 -0.898600
							CHANNELS 3 Xrotation Yrotation Zrotation
							JOINT Spine6
							{
								OFFSET 0.000000 10.370000 1.550000
								CHANNELS 3 Xrotation Yrotation Zrotation
								JOINT LeftShoulder
								{
									OFFSET 1.212000 -7.475000 7.403000
									CHANNELS 3 Xrotation Yrotation Zrotation
									JOINT LeftArm
									{
										OFFSET 12.730000 3.193000 -3.212000
										CHANNELS 3 Xrotation Yrotation Zrotation
										JOINT LeftForeArm
										{
											OFFSET 28.700001 0.058700 0.134700
											CHANNELS 3 Xrotation Yrotation Zrotation
											JOINT LeftHand
											{
												OFFSET 23.809999 0.048800 0.111700
												CHANNELS 3 Xrotation Yrotation Zrotation
												JOINT LeftHandThumb1
												{
													OFFSET 0.342600 -0.877100 1.299200
													CHANNELS 3 Xrotation Yrotation Zrotation
													JOINT LeftHandThumb2
													{
														OFFSET 3.552400 0.035400 4.233400
														CHANNELS 3 Xrotation Yrotation Zrotation
														JOINT LeftHandThumb3
														{
															OFFSET 2.296600 0.022900 2.736900
															CHANNELS 3 Xrotation Yrotation Zrotation
															End Site
															{
																OFFSET 0 0 0
															}
														}
													}
												}
												JOINT LeftHandIndex1
												{
													OFFSET 8.341500 -0.231800 2.230700
													CHANNELS 3 Xrotation Yrotation Zrotation
													JOINT LeftHandIndex2
													{
														OFFSET 4.365700 0.000000 0.000000
														CHANNELS 3 Xrotation Yrotation Zrotation
														JOINT LeftHandIndex3
														{
															OFFSET 2.594000 0.000000 0.000000
															CHANNELS 3 Xrotation Yrotation Zrotation
															End Site
															{
																OFFSET 0 0 0
															}
														}
													}
												}
												JOINT LeftHandMiddle1
												{
													OFFSET 8.432300 0.000000 0.000000
													CHANNELS 3 Xrotation Yrotation Zrotation
													JOINT LeftHandMiddle2
													{
														OFFSET 4.555200 0.000000 0.000000
														CHANNELS 3 Xrotation Yrotation Zrotation
														JOINT LeftHandMiddle3
														{
															OFFSET 2.865300 0.000000 0.000000
															CHANNELS 3 Xrotation Yrotation Zrotation
															End Site
															{
																OFFSET 0 0 0
															}
														}
													}
												}
												JOINT LeftHandRing1
												{
													OFFSET 7.689400 -0.454700 -1.530700
													CHANNELS 3 Xrotation Yrotation Zrotation
													JOINT LeftHandRing2
													{
														OFFSET 4.269500 0.000000 0.000000
														CHANNELS 3 Xrotation Yrotation Zrotation
														JOINT LeftHandRing3
														{
															OFFSET 2.807300 0.000000 0.000000
															CHANNELS 3 Xrotation Yrotation Zrotation
															End Site
															{
																OFFSET 0 0 0
															}
														}
													}
												}
												JOINT LeftHandPinky1
												{
													OFFSET 6.579800 -1.192300 -2.874700
													CHANNELS 3 Xrotation Yrotation Zrotation
													JOINT LeftHandPinky2
													{
														OFFSET 3.404900 0.000000 0.000000
														CHANNELS 3 Xrotation Yrotation Zrotation
														JOINT LeftHandPinky3
														{
															OFFSET 2.167000 0.000000 0.000000
															CHANNELS 3 Xrotation Yrotation Zrotation
															End Site
															{
																OFFSET 0 0 0
															}
														}
													}
												}
											}
										}
									}
								}
								JOINT RightShoulder
								{
									OFFSET -1.212000 -7.475000 7.403000
									CHANNELS 3 Xrotation Yrotation Zrotation
									JOINT RightArm
									{
										OFFSET -12.730000 3.193000 -3.212000
										CHANNELS 3 Xrotation Yrotation Zrotation
										JOINT RightForeArm
										{
											OFFSET -28.700001 0.058900 0.134800
											CHANNELS 3 Xrotation Yrotation Zrotation
											JOINT RightHand
											{
												OFFSET -23.809999 0.048800 0.111800
												CHANNELS 3 Xrotation Yrotation Zrotation
												JOINT RightHandThumb1
												{
													OFFSET -0.331700 -0.854900 1.465200
													CHANNELS 3 Xrotation Yrotation Zrotation
													JOINT RightHandThumb2
													{
														OFFSET -3.394400 0.033800 4.045100
														CHANNELS 3 Xrotation Yrotation Zrotation
														JOINT RightHandThumb3
														{
															OFFSET -2.228600 0.022200 2.655900
															CHANNELS 3 Xrotation Yrotation Zrotation
															End Site
															{
																OFFSET 0 0 0
															}
														}
													}
												}
												JOINT RightHandIndex1
												{
													OFFSET -8.067200 -0.148300 2.256000
													CHANNELS 3 Xrotation Yrotation Zrotation
													JOINT RightHandIndex2
													{
														OFFSET -4.244400 0.000000 0.000000
														CHANNELS 3 Xrotation Yrotation Zrotation
														JOINT RightHandIndex3
														{
															OFFSET -2.518100 0.000000 0.000000
															CHANNELS 3 Xrotation Yrotation Zrotation
															End Site
															{
																OFFSET 0 0 0
															}
														}
													}
												}
												JOINT RightHandMiddle1
												{
													OFFSET -8.141100 0.000000 0.000000
													CHANNELS 3 Xrotation Yrotation Zrotation
													JOINT RightHandMiddle2
													{
														OFFSET -4.416900 0.000000 0.000000
														CHANNELS 3 Xrotation Yrotation Zrotation
														JOINT RightHandMiddle3
														{
															OFFSET -2.814700 0.000000 0.000000
															CHANNELS 3 Xrotation Yrotation Zrotation
															End Site
															{
																OFFSET 0 0 0
															}
														}
													}
												}
												JOINT RightHandRing1
												{
													OFFSET -7.423600 -0.524800 -1.560900
													CHANNELS 3 Xrotation Yrotation Zrotation
													JOINT RightHandRing2
													{
														OFFSET -4.128000 0.000000 0.000000
														CHANNELS 3 Xrotation Yrotation Zrotation
														JOINT RightHandRing3
														{
															OFFSET -2.724700 0.000000 0.000000
															CHANNELS 3 Xrotation Yrotation Zrotation
															End Site
															{
																OFFSET 0 0 0
															}
														}
													}
												}
												JOINT RightHandPinky1
												{
													OFFSET -6.307900 -1.287900 -2.847400
													CHANNELS 3 Xrotation Yrotation Zrotation
													JOINT RightHandPinky2
													{
														OFFSET -3.314800 0.000000 0.000000
														CHANNELS 3 Xrotation Yrotation Zrotation
														JOINT RightHandPinky3
														{
															OFFSET -2.102600 0.000000 0.000000
															CHANNELS 3 Xrotation Yrotation Zrotation
															End Site
															{
																OFFSET 0 0 0
															}
														}
													}
												}
											}
										}
									}
								}
								JOINT Neck
								{
									OFFSET 0.000000 4.703000 0.702900
									CHANNELS 3 Xrotation Yrotation Zrotation
									JOINT Neck1
									{
										OFFSET 0.000000 4.737000 0.414500
										CHANNELS 3 Xrotation Yrotation Zrotation
										JOINT Head
										{
											OFFSET 0.000000 4.747000 0.751800
											CHANNELS 3 Xrotation Yrotation Zrotation
											End Site
											{
												OFFSET 0 0 0
											}
										}
									}
								}
							}
						}
					}
				}
			}
		}
	}
}
MOTION
Frames: 4
Frame Time: 1.00000000
21.770802 91.691185 179.835281 -8.216757 2.936535 1.594926 -11.397526 -8.232160 -5.868085 14.942505 -0.848390 -0.015453 -0.707317 -0.685297 18.256384 0.000000 -0.000000 -0.000000 -3.578935 -7.363362 -6.370105 45.022594 2.422454 -0.605239 3.758805 18.637850 -12.904665 0.000000 0.000000 -0.000000 3.063240 0.451986 -0.358670 0.298881 0.253798 0.262435 0.298360 0.256178 0.260781 0.297839 0.258466 0.259026 0.297327 0.260846 0.257272 0.296807 0.263134 0.255517 0.296387 0.265414 0.253672 1.792290 3.453459 4.196261 10.642934 -9.982324 -77.913109 4.292254 -26.864460 2.027488 -0.024632 3.546854 -0.346841 14.464211 25.523209 -38.534054 0.044387 7.074967 -0.168959 -0.134355 10.966688 -0.056501 3.290292 5.887132 -33.820988 1.572498 2.910189 -51.787533 0.409421 1.562656 -24.463760 2.355076 4.078725 -31.448837 -0.257568 -0.230843 -41.557842 -0.112234 -0.130617 -23.235764 -10.743336 14.175657 -27.271805 0.487440 3.561406 -42.328632 -0.121062 1.476715 -16.849514 -20.040712 19.705004 -13.994099 -0.519322 3.697768 -32.740494 -0.593591 2.659806 -23.814386 3.936736 1.703497 -3.866287 -1.657435 16.896086 71.189400 -10.523098 30.876329 5.157155 -1.359724 -4.682748 -16.442022 7.032393 -26.676346 36.317204 -4.661211 -4.138357 -4.247047 0.122987 -9.438584 0.069653 1.394982 -1.596104 30.458084 0.189634 0.182605 36.920940 0.094770 0.064219 15.212928 1.207798 -1.509465 32.416298 0.058879 0.242698 29.580576 0.035597 0.180473 19.827436 -8.826891 -10.625688 31.073061 0.115152 -0.171827 34.311733 0.019789 -0.082365 15.674342 -14.644467 -22.783468 22.096584 -0.005516 0.206546 29.372292 0.000284 0.152691 19.764395 1.545081 -0.160983 0.676866 1.545081 -0.160983 0.676866 9.588030 -1.322579 -4.563415 
22.362230 91.855316 181.442078 -8.385141 2.999214 1.716837 -9.923681 -8.546965 -6.358917 14.244811 -0.808896 -0.019645 -1.198398 -0.461487 18.901060 0.000000 -0.000000 -0.000000 -6.564419 -7.352791 -6.902578 48.241310 2.566718 -0.717747 2.466395 16.962025 -14.291821 -0.000000 -0.000000 0.000000 3.305753 0.225492 -0.410218 0.331704 0.135612 0.260860 0.331359 0.138250 0.259915 0.331095 0.140789 0.258869 0.330832 0.143345 0.257824 0.330569 0.145883 0.256697 0.330325 0.148421 0.255551 2.057013 3.247100 3.426604 7.361522 -10.594188 -76.621788 4.242225 -28.747725 2.127174 -0.060884 1.935245 1.496515 14.286788 25.460865 -38.598061 0.035838 6.844864 -0.158878 -0.134479 10.767754 -0.057069 3.309277 6.123866 -33.662426 1.555768 2.896893 -51.496452 0.393329 1.531235 -23.987391 2.281627 3.965840 -31.398355 -0.254972 -0.233706 -40.917664 -0.112041 -0.130782 -23.151278 -10.790751 14.246871 -27.432861 0.479907 3.547718 -42.165085 -0.117364 1.477340 -16.865620 -20.051914 19.634716 -14.198844 -0.515894 3.717987 -32.906231 -0.593751 2.649842 -23.734232 4.031765 1.555785 -4.048424 0.647901 17.389366 72.418137 -10.400495 27.343861 4.578063 -1.524869 -5.544981 -15.735183 6.975389 -26.542944 36.298260 -4.672433 -4.084171 -4.252049 0.122947 -9.388177 0.069675 1.496886 -1.538008 30.497704 0.189360 0.182664 36.980408 0.094624 0.064433 15.342811 1.261259 -1.589520 32.476482 0.058942 0.242607 29.543772 0.036308 0.180331 19.601591 -8.710786 -10.917039 31.364473 0.115373 -0.171523 34.365620 0.018807 -0.080646 15.340359 -14.521814 -22.720213 22.490320 -0.005353 0.206550 29.326988 0.000690 0.152690 19.611959 1.549367 -0.090489 0.599236 1.549367 -0.090489 0.599237 9.489250 -0.868351 -4.705747 
22.826620 92.053871 182.779282 -8.368576 3.110877 1.754295 -8.633588 -9.026532 -6.693527 13.219521 -0.750733 -0.024867 -1.372027 -0.169159 19.436016 -0.000000 -0.000000 -0.000000 -9.003389 -7.100446 -6.991452 48.847889 2.593659 -0.739337 1.286395 14.762527 -15.844655 -0.000000 0.000000 0.000000 3.479003 0.005438 -0.446729 0.353358 0.020672 0.275349 0.353335 0.023662 0.275131 0.353268 0.026551 0.274886 0.353272 0.029441 0.274640 0.353277 0.032330 0.274295 0.353355 0.035219 0.273877 2.006030 2.870644 3.004684 4.340310 -10.941494 -75.717819 4.352952 -30.258083 2.280538 -0.005001 0.441949 3.742005 14.378069 25.502714 -38.555233 0.072341 6.757361 -0.192958 -0.134883 10.297941 -0.058288 3.616994 6.216931 -34.511395 1.544747 2.888063 -51.303230 0.374393 1.493474 -23.418184 2.185162 3.651508 -32.518955 -0.252050 -0.236855 -40.206032 -0.111764 -0.131019 -23.030062 -10.711004 14.176857 -28.387756 0.465546 3.521219 -41.848534 -0.119160 1.447972 -16.555084 -20.082708 19.554283 -14.864382 -0.517676 3.707210 -32.817081 -0.593950 2.634395 -23.607409 4.040721 1.403239 -4.377264 2.950398 17.766708 73.613869 -10.239833 23.789972 3.973008 -1.629273 -6.476481 -14.585960 7.086432 -26.619858 36.350342 -4.629879 -4.068714 -4.210484 0.123036 -9.443161 0.069927 1.660702 -1.821165 30.395229 0.187771 0.184027 37.498703 0.094460 0.064673 15.488207 1.355190 -1.764729 32.104370 0.058197 0.242712 29.697941 0.036684 0.180255 19.482084 -8.596299 -10.895767 30.874462 0.114404 -0.172016 34.022671 0.018325 -0.079324 15.260415 -14.452869 -22.709082 22.259092 -0.004238 0.206576 29.017729 0.000668 0.152690 19.620180 1.526979 -0.023186 0.524050 1.526979 -0.023186 0.524050 9.436457 -0.446368 -4.885534 
23.217691 92.287422 183.951004 -8.154750 3.248506 1.620581 -7.493055 -9.340989 -6.738519 12.011849 -0.682141 -0.029723 -1.385826 -0.117962 19.871239 -0.000000 -0.000000 0.000000 -10.880027 -6.840523 -6.855434 47.231739 2.522268 -0.681418 -0.709881 13.009680 -16.840195 0.000000 0.000000 0.000000 3.566706 -0.177461 -0.401497 0.359434 -0.082401 0.304301 0.359699 -0.079105 0.304874 0.361847 -0.075899 0.305450 0.360189 -0.072651 0.305892 0.360463 -0.069392 0.306365 0.360093 -0.066137 0.306673 1.741520 2.371964 2.807991 1.394421 -10.925048 -75.071716 4.339726 -31.235128 2.336300 0.034867 -0.140288 5.068180 14.463679 25.512953 -38.531200 0.163926 6.787897 -0.280575 -0.135103 10.012914 -0.059065 3.816225 6.258091 -35.122410 1.528742 2.875094 -51.021679 0.357269 1.464938 -22.973083 2.118194 3.439002 -33.309845 -0.249723 -0.239307 -39.646049 -0.111456 -0.131280 -22.895739 -10.707423 14.075627 -28.823734 0.447561 3.487453 -41.446484 -0.122438 1.411329 -16.164627 -20.140432 19.521666 -15.242279 -0.518863 3.700034 -32.757526 -0.593922 2.630161 -23.570240 3.919808 1.229766 -4.849801 5.341853 17.870056 74.764297 -9.846983 20.583374 3.340745 -1.777249 -7.794406 -13.411064 7.222252 -26.539446 36.320087 -4.518518 -4.091662 -4.108462 0.122951 -9.357249 0.069873 1.743989 -1.794549 30.298296 0.187778 0.183732 37.529610 0.094393 0.064771 15.547760 1.455323 -1.925401 32.067020 0.057171 0.242882 29.918520 0.036965 0.180197 19.392614 -8.456988 -10.990862 30.643929 0.113716 -0.172319 33.773891 0.017802 -0.078282 15.095271 -14.339087 -22.877914 22.055447 -0.003394 0.206591 28.783836 0.000681 0.152690 19.615499 1.509735 0.031208 0.466483 1.509736 0.031209 0.466547 9.365104 -0.107256 -5.057215 
